<svg width="15" height="21" viewBox="0 0 15 21" fill="none" xmlns="http://www.w3.org/2000/svg">
<path fill-rule="evenodd" clip-rule="evenodd" d="M14.9324 8.15002C14.9324 8.38105 14.9219 8.60963 14.9013 8.83531L14.9322 8.84634C14.9083 9.06261 14.8608 9.32555 14.7856 9.63024C14.664 10.2351 14.4693 10.8134 14.2111 11.3557C13.2584 13.7019 11.2634 17.0907 7.54337 20.6839C5.71222 19.0276 2.40545 15.336 0.860088 11.6322C0.310922 10.5926 0 9.4076 0 8.15002C0 4.02656 3.34272 0.683838 7.46618 0.683838C11.5896 0.683838 14.9324 4.02656 14.9324 8.15002ZM7.58209 11.7477C9.50495 11.7477 11.0637 10.1889 11.0637 8.26607C11.0637 6.34322 9.50495 4.78443 7.58209 4.78443C5.65924 4.78443 4.10045 6.34322 4.10045 8.26607C4.10045 10.1889 5.65924 11.7477 7.58209 11.7477Z" fill="#FFC11E"/>
</svg>
